<svg width="301" height="236" viewBox="0 0 301 236" fill="none" xmlns="http://www.w3.org/2000/svg">
<g filter="url(#filter0_b_0_836)">
<rect y="0.164062" width="300.351" height="195.951" rx="11.9128" fill="#E8356D"/>
</g>
<path d="M281.714 0.164062H11.9096C5.33213 0.164062 0 5.4962 0 12.0737V185.113C0 186.39 1.41755 187.156 2.48576 186.457L282.593 3.11409C283.929 2.23994 283.31 0.164062 281.714 0.164062Z" fill="#E62662"/>
<g opacity="0.6">
<path d="M89.3359 235.161C102.979 232.886 138.506 225.463 148.593 220.516C204.532 193.557 231.253 100.209 231.584 99.2966H276.622C276.286 100.189 270.979 115.468 248.513 158.124C234.625 183.47 214.524 200.367 190.815 214.247C150.095 238.067 89.3359 235.161 89.3359 235.161Z" fill="url(#paint0_linear_0_836)"/>
<g opacity="0.1">
<path d="M89.3359 235.162C102.979 232.887 138.506 225.464 148.593 220.517C204.532 193.558 231.253 100.21 231.584 99.2974H276.622C276.286 100.189 270.979 115.469 248.513 158.125C234.625 183.471 214.524 200.367 190.815 214.248C150.095 238.067 89.3359 235.162 89.3359 235.162Z" fill="url(#paint1_linear_0_836)"/>
</g>
<path d="M221.117 94.6196L231.581 99.2969C231.294 100.058 217.353 171.89 174.701 206.37C144.772 230.562 125.617 236.242 60.5938 235.276V222.64C97.2873 222.64 123.464 221.453 147.346 208.993C201.242 180.876 221.035 94.8283 221.117 94.6196Z" fill="url(#paint2_linear_0_836)"/>
<path d="M221.117 94.6196H269.657L276.618 99.2969H231.581L221.117 94.6196Z" fill="url(#paint3_linear_0_836)"/>
<path d="M258.089 64.5425L289.651 104.452L215.266 104.252L258.089 64.5425Z" fill="url(#paint4_linear_0_836)"/>
<g opacity="0.1">
<path d="M258.066 64.5425L289.628 104.452L215.242 104.252L258.066 64.5425Z" fill="url(#paint5_linear_0_836)"/>
</g>
<path d="M215.265 104.252L204.445 99.2965L247.269 59.5872L258.088 64.5426L215.265 104.252Z" fill="url(#paint6_linear_0_836)"/>
</g>
<path d="M35.26 57.1167L36.54 54.1567H43.24L44.5 57.1167H47.94L42.04 43.7167H37.76L31.9 57.1167H35.26ZM38.96 48.5367L39.78 46.4567H40L40.82 48.5367L42.08 51.4567H37.7L38.96 48.5367ZM53.9798 57.3167C57.1998 57.3167 59.3998 55.5767 59.3998 52.9967V52.7167H56.4198V52.8767C56.4198 54.1567 55.4798 54.6167 53.9198 54.6167C52.1398 54.6167 51.3198 53.9567 51.3198 52.1167C51.3198 50.2567 52.1398 49.5967 53.9198 49.5967C55.4798 49.5967 56.4198 50.0567 56.4198 51.3367V51.4967H59.3998V51.2167C59.3998 48.6167 57.1998 46.8967 53.9798 46.8967C50.5398 46.8967 48.3398 48.9167 48.3398 52.1167C48.3398 55.2767 50.5398 57.3167 53.9798 57.3167ZM66.0306 57.3167C69.2506 57.3167 71.4506 55.5767 71.4506 52.9967V52.7167H68.4706V52.8767C68.4706 54.1567 67.5306 54.6167 65.9706 54.6167C64.1906 54.6167 63.3706 53.9567 63.3706 52.1167C63.3706 50.2567 64.1906 49.5967 65.9706 49.5967C67.5306 49.5967 68.4706 50.0567 68.4706 51.3367V51.4967H71.4506V51.2167C71.4506 48.6167 69.2506 46.8967 66.0306 46.8967C62.5906 46.8967 60.3906 48.9167 60.3906 52.1167C60.3906 55.2767 62.5906 57.3167 66.0306 57.3167ZM78.0614 57.3167C81.2414 57.3167 83.3614 55.7967 83.3614 53.6167V53.3967H80.3614V53.5967C80.3614 54.4567 79.7414 54.9167 77.9614 54.9167C76.0214 54.9167 75.3014 54.2567 75.2214 52.7167H83.3814C83.4214 52.3767 83.4614 52.1167 83.4614 51.7567C83.4614 48.6167 81.2814 46.8967 78.0014 46.8967C74.7014 46.8967 72.4414 48.9167 72.4414 52.1167C72.4414 55.6767 74.7214 57.3167 78.0614 57.3167ZM77.9414 49.2367C79.7014 49.2367 80.5014 49.8167 80.5814 51.1367H75.2614C75.4014 49.8367 76.1614 49.2367 77.9414 49.2367ZM89.7936 57.3167C92.8936 57.3167 94.7536 56.0767 94.7536 54.1967C94.7536 52.5367 93.7536 51.6367 91.0736 51.3367L88.9336 51.0767C87.6136 50.9167 87.3336 50.6967 87.3336 50.1767C87.3336 49.5367 87.7136 49.2767 89.2136 49.2767C91.0536 49.2767 91.4536 49.6967 91.4536 50.5167V50.6367H94.4536V50.5767C94.4536 48.1367 92.5936 46.8967 89.3136 46.8967C85.8736 46.8967 84.3736 48.2967 84.3736 50.0567C84.3736 51.7367 85.4936 52.6367 87.4936 52.8567L90.3136 53.1967C91.4936 53.3567 91.7936 53.5167 91.7936 54.0767C91.7936 54.6767 91.4136 54.9367 89.8136 54.9367C88.1136 54.9367 87.5536 54.6967 87.5536 53.7967V53.6167H84.5536V53.6767C84.5536 55.9967 86.4136 57.3167 89.7936 57.3167ZM101.024 57.3167C104.124 57.3167 105.984 56.0767 105.984 54.1967C105.984 52.5367 104.984 51.6367 102.304 51.3367L100.164 51.0767C98.8441 50.9167 98.5641 50.6967 98.5641 50.1767C98.5641 49.5367 98.9441 49.2767 100.444 49.2767C102.284 49.2767 102.684 49.6967 102.684 50.5167V50.6367H105.684V50.5767C105.684 48.1367 103.824 46.8967 100.544 46.8967C97.1041 46.8967 95.6041 48.2967 95.6041 50.0567C95.6041 51.7367 96.7241 52.6367 98.7241 52.8567L101.544 53.1967C102.724 53.3567 103.024 53.5167 103.024 54.0767C103.024 54.6767 102.644 54.9367 101.044 54.9367C99.3441 54.9367 98.7841 54.6967 98.7841 53.7967V53.6167H95.7841V53.6767C95.7841 55.9967 97.6441 57.3167 101.024 57.3167ZM117.34 57.1167V54.4167H115.54C114.48 54.4167 114.1 54.1567 114.1 53.1567V49.5767H117.34V47.0967H114.1V45.1567H111.1V47.0967H109.52V49.5767H111.1V53.4967C111.1 56.0167 112.52 57.1167 114.86 57.1167H117.34ZM123.804 57.3167C127.224 57.3167 129.524 55.2767 129.524 52.1167C129.524 48.9167 127.224 46.8967 123.804 46.8967C120.384 46.8967 118.084 48.9167 118.084 52.1167C118.084 55.2767 120.384 57.3167 123.804 57.3167ZM123.804 54.6567C121.764 54.6567 121.064 53.8767 121.064 52.1167C121.064 50.3567 121.764 49.5367 123.804 49.5367C125.824 49.5367 126.544 50.3567 126.544 52.1167C126.544 53.8767 125.824 54.6567 123.804 54.6567ZM136.835 57.1167V52.0567C136.835 50.3167 137.355 49.5967 139.175 49.5967C140.895 49.5967 141.475 50.2167 141.475 51.8767V57.1167H144.475V52.0567C144.475 50.3167 144.995 49.5967 146.815 49.5967C148.535 49.5967 149.115 50.2167 149.115 51.8767V57.1167H152.115V50.8767C152.115 48.5967 150.855 46.8967 148.275 46.8967C145.695 46.8967 144.675 48.4767 144.435 50.1767H144.255C144.035 48.3167 142.855 46.8967 140.535 46.8967C138.015 46.8967 137.015 48.4567 136.775 50.1367H136.615V47.0967H133.835V57.1167H136.835ZM158.98 57.3167C162.4 57.3167 164.7 55.2767 164.7 52.1167C164.7 48.9167 162.4 46.8967 158.98 46.8967C155.56 46.8967 153.26 48.9167 153.26 52.1167C153.26 55.2767 155.56 57.3167 158.98 57.3167ZM158.98 54.6567C156.94 54.6567 156.24 53.8767 156.24 52.1167C156.24 50.3567 156.94 49.5367 158.98 49.5367C161 49.5367 161.72 50.3567 161.72 52.1167C161.72 53.8767 161 54.6567 158.98 54.6567ZM168.925 57.1167V51.3167C168.925 50.0567 169.405 49.4367 170.745 49.4367C171.965 49.4367 172.405 49.9167 172.405 51.0167V52.0567H175.405V50.3967C175.405 48.4367 174.485 46.8967 172.245 46.8967C170.225 46.8967 169.165 48.1367 168.885 49.7567H168.705V47.0967H165.925V57.1167H168.925ZM181.811 57.3167C184.991 57.3167 187.111 55.7967 187.111 53.6167V53.3967H184.111V53.5967C184.111 54.4567 183.491 54.9167 181.711 54.9167C179.771 54.9167 179.051 54.2567 178.971 52.7167H187.131C187.171 52.3767 187.211 52.1167 187.211 51.7567C187.211 48.6167 185.031 46.8967 181.751 46.8967C178.451 46.8967 176.191 48.9167 176.191 52.1167C176.191 55.6767 178.471 57.3167 181.811 57.3167ZM181.691 49.2367C183.451 49.2367 184.251 49.8167 184.331 51.1367H179.011C179.151 49.8367 179.911 49.2367 181.691 49.2367ZM36.6 82.1167V74.5767H39.7V72.0967H36.48C36.4 71.1167 37.02 70.8967 38.34 70.8967H39.7V68.7167H38.82C35.74 68.7167 33.98 70.0767 33.66 72.0967H32.18V74.5767H33.6V82.1167H36.6ZM43.7 71.0767V68.7167H40.7V71.0767H43.7ZM43.7 82.1167V72.0967H40.7V82.1167H43.7ZM48.2805 82.1167V77.0567C48.2805 75.3567 48.9605 74.5967 50.8605 74.5967C52.7005 74.5967 53.3605 75.2767 53.3605 76.8767V82.1167H56.3605V75.8767C56.3605 73.6567 55.0605 71.8967 52.3205 71.8967C49.7005 71.8967 48.5005 73.4967 48.2405 75.1767H48.0605V72.0967H45.2805V82.1167H48.2805ZM60.9581 82.3167C63.1781 82.3167 64.5781 81.3767 65.0381 79.8167H65.1981V82.1167H67.9981V76.2367C67.9981 73.6167 66.4181 71.8967 63.0781 71.8967C59.7781 71.8967 57.6981 73.6167 57.6981 76.0967V76.1567H60.7181V76.0767C60.7181 74.9367 61.3381 74.5367 62.8581 74.5367C64.4581 74.5367 65.0381 74.8967 65.0381 76.1967V76.5767L60.7381 77.0167C58.5981 77.2367 57.4981 78.1567 57.4981 79.6367C57.4981 81.3167 58.7981 82.3167 60.9581 82.3167ZM60.5181 79.4367C60.5181 78.9567 60.8381 78.7567 61.5581 78.6967L65.0381 78.2967C64.9581 79.7167 63.8581 80.1967 61.8181 80.1967C60.9381 80.1967 60.5181 79.9767 60.5181 79.4367ZM72.5188 82.1167V77.0567C72.5188 75.3567 73.1988 74.5967 75.0988 74.5967C76.9388 74.5967 77.5988 75.2767 77.5988 76.8767V82.1167H80.5988V75.8767C80.5988 73.6567 79.2988 71.8967 76.5588 71.8967C73.9388 71.8967 72.7388 73.4967 72.4788 75.1767H72.2988V72.0967H69.5188V82.1167H72.5188ZM87.4564 82.3167C90.6764 82.3167 92.8764 80.5767 92.8764 77.9967V77.7167H89.8964V77.8767C89.8964 79.1567 88.9564 79.6167 87.3964 79.6167C85.6164 79.6167 84.7964 78.9567 84.7964 77.1167C84.7964 75.2567 85.6164 74.5967 87.3964 74.5967C88.9564 74.5967 89.8964 75.0567 89.8964 76.3367V76.4967H92.8764V76.2167C92.8764 73.6167 90.6764 71.8967 87.4564 71.8967C84.0164 71.8967 81.8164 73.9167 81.8164 77.1167C81.8164 80.2767 84.0164 82.3167 87.4564 82.3167ZM97.1672 71.0767V68.7167H94.1672V71.0767H97.1672ZM97.1672 82.1167V72.0967H94.1672V82.1167H97.1672ZM101.818 82.3167C104.038 82.3167 105.438 81.3767 105.898 79.8167H106.058V82.1167H108.858V76.2367C108.858 73.6167 107.278 71.8967 103.938 71.8967C100.638 71.8967 98.5575 73.6167 98.5575 76.0967V76.1567H101.578V76.0767C101.578 74.9367 102.198 74.5367 103.718 74.5367C105.318 74.5367 105.898 74.8967 105.898 76.1967V76.5767L101.598 77.0167C99.4575 77.2367 98.3575 78.1567 98.3575 79.6367C98.3575 81.3167 99.6575 82.3167 101.818 82.3167ZM101.378 79.4367C101.378 78.9567 101.698 78.7567 102.418 78.6967L105.898 78.2967C105.818 79.7167 104.718 80.1967 102.678 80.1967C101.798 80.1967 101.378 79.9767 101.378 79.4367ZM113.378 82.1167V68.7167H110.378V82.1167H113.378ZM125.094 82.1167V79.4167H123.294C122.234 79.4167 121.854 79.1567 121.854 78.1567V74.5767H125.094V72.0967H121.854V70.1567H118.854V72.0967H117.274V74.5767H118.854V78.4967C118.854 81.0167 120.274 82.1167 122.614 82.1167H125.094ZM131.558 82.3167C134.978 82.3167 137.278 80.2767 137.278 77.1167C137.278 73.9167 134.978 71.8967 131.558 71.8967C128.138 71.8967 125.838 73.9167 125.838 77.1167C125.838 80.2767 128.138 82.3167 131.558 82.3167ZM131.558 79.6567C129.518 79.6567 128.818 78.8767 128.818 77.1167C128.818 75.3567 129.518 74.5367 131.558 74.5367C133.578 74.5367 134.298 75.3567 134.298 77.1167C134.298 78.8767 133.578 79.6567 131.558 79.6567ZM143.843 82.3167C147.263 82.3167 149.563 80.2767 149.563 77.1167C149.563 73.9167 147.263 71.8967 143.843 71.8967C140.423 71.8967 138.123 73.9167 138.123 77.1167C138.123 80.2767 140.423 82.3167 143.843 82.3167ZM143.843 79.6567C141.803 79.6567 141.103 78.8767 141.103 77.1167C141.103 75.3567 141.803 74.5367 143.843 74.5367C145.863 74.5367 146.583 75.3567 146.583 77.1167C146.583 78.8767 145.863 79.6567 143.843 79.6567ZM153.788 82.1167V68.7167H150.788V82.1167H153.788ZM160.419 82.3167C163.519 82.3167 165.379 81.0767 165.379 79.1967C165.379 77.5367 164.379 76.6367 161.699 76.3367L159.559 76.0767C158.239 75.9167 157.959 75.6967 157.959 75.1767C157.959 74.5367 158.339 74.2767 159.839 74.2767C161.679 74.2767 162.079 74.6967 162.079 75.5167V75.6367H165.079V75.5767C165.079 73.1367 163.219 71.8967 159.939 71.8967C156.499 71.8967 154.999 73.2967 154.999 75.0567C154.999 76.7367 156.119 77.6367 158.119 77.8567L160.939 78.1967C162.119 78.3567 162.419 78.5167 162.419 79.0767C162.419 79.6767 162.039 79.9367 160.439 79.9367C158.739 79.9367 158.179 79.6967 158.179 78.7967V78.6167H155.179V78.6767C155.179 80.9967 157.039 82.3167 160.419 82.3167Z" fill="white"/>
<defs>
<filter id="filter0_b_0_836" x="-238.256" y="-238.092" width="776.863" height="672.463" filterUnits="userSpaceOnUse" color-interpolation-filters="sRGB">
<feFlood flood-opacity="0" result="BackgroundImageFix"/>
<feGaussianBlur in="BackgroundImageFix" stdDeviation="119.128"/>
<feComposite in2="SourceAlpha" operator="in" result="effect1_backgroundBlur_0_836"/>
<feBlend mode="normal" in="SourceGraphic" in2="effect1_backgroundBlur_0_836" result="shape"/>
</filter>
<linearGradient id="paint0_linear_0_836" x1="182.979" y1="99.2966" x2="182.979" y2="235.273" gradientUnits="userSpaceOnUse">
<stop stop-color="white" stop-opacity="0.23"/>
<stop offset="1" stop-color="white" stop-opacity="0"/>
</linearGradient>
<linearGradient id="paint1_linear_0_836" x1="182.979" y1="99.2974" x2="182.979" y2="235.274" gradientUnits="userSpaceOnUse">
<stop stop-color="white"/>
<stop offset="1" stop-color="white" stop-opacity="0"/>
</linearGradient>
<linearGradient id="paint2_linear_0_836" x1="146.087" y1="94.6196" x2="146.087" y2="235.377" gradientUnits="userSpaceOnUse">
<stop stop-color="white" stop-opacity="0.23"/>
<stop offset="1" stop-color="white" stop-opacity="0"/>
</linearGradient>
<linearGradient id="paint3_linear_0_836" x1="248.868" y1="94.6196" x2="248.868" y2="99.2969" gradientUnits="userSpaceOnUse">
<stop stop-color="white" stop-opacity="0.23"/>
<stop offset="1" stop-color="white" stop-opacity="0"/>
</linearGradient>
<linearGradient id="paint4_linear_0_836" x1="252.458" y1="64.5425" x2="252.458" y2="104.452" gradientUnits="userSpaceOnUse">
<stop stop-color="white" stop-opacity="0.23"/>
<stop offset="1" stop-color="white" stop-opacity="0"/>
</linearGradient>
<linearGradient id="paint5_linear_0_836" x1="252.435" y1="64.5425" x2="252.435" y2="104.452" gradientUnits="userSpaceOnUse">
<stop stop-color="white"/>
<stop offset="1" stop-color="white" stop-opacity="0"/>
</linearGradient>
<linearGradient id="paint6_linear_0_836" x1="231.267" y1="59.5872" x2="231.267" y2="104.252" gradientUnits="userSpaceOnUse">
<stop stop-color="white" stop-opacity="0.23"/>
<stop offset="1" stop-color="white" stop-opacity="0"/>
</linearGradient>
</defs>
</svg>
